<svg width="69" height="36" viewBox="0 0 69 36" fill="none" xmlns="http://www.w3.org/2000/svg">
<path d="M7.54 1.8C9.03333 1.8 10.2067 2.16 11.06 2.88C11.9133 3.6 12.34 4.56667 12.34 5.78C12.34 7.07333 11.9133 8.06667 11.06 8.76C10.2067 9.44 9.04 9.78 7.56 9.78L7.28 9.94H4.44V15H1.72V1.8H7.54ZM7.22 7.84C7.99333 7.84 8.56667 7.68667 8.94 7.38C9.32667 7.06 9.52 6.57333 9.52 5.92C9.52 5.26667 9.32667 4.78667 8.94 4.48C8.56667 4.16 7.99333 4 7.22 4H4.44V7.84H7.22ZM8.84 8.42L13.12 15H10.02L6.48 9.22L8.84 8.42ZM16.3552 3.56C15.7818 3.56 15.3552 3.44 15.0752 3.2C14.7952 2.94667 14.6552 2.58 14.6552 2.1C14.6552 1.60667 14.7952 1.24 15.0752 0.999999C15.3552 0.746666 15.7818 0.619999 16.3552 0.619999C16.9285 0.619999 17.3552 0.746666 17.6352 0.999999C17.9152 1.24 18.0552 1.60667 18.0552 2.1C18.0552 2.58 17.9152 2.94667 17.6352 3.2C17.3552 3.44 16.9285 3.56 16.3552 3.56ZM17.7152 5V15H14.9752V5H17.7152ZM26.4997 15.2C25.8864 15.2 25.3264 15.0733 24.8197 14.82C24.3264 14.5533 23.913 14.1933 23.5797 13.74C23.2597 13.2733 23.0397 12.7533 22.9197 12.18L23.1997 11.82L23.0397 15H20.6197V0.619999H23.3597V7.82L23.0997 7.4C23.313 6.65333 23.7197 6.03333 24.3197 5.54C24.9197 5.04667 25.673 4.8 26.5797 4.8C27.3664 4.8 28.0797 5.00667 28.7197 5.42C29.3597 5.83333 29.8597 6.42667 30.2197 7.2C30.593 7.97333 30.7797 8.91333 30.7797 10.02C30.7797 11.1 30.593 12.0267 30.2197 12.8C29.8597 13.5733 29.353 14.1667 28.6997 14.58C28.0597 14.9933 27.3264 15.2 26.4997 15.2ZM25.6797 13.1C26.413 13.1 26.9864 12.84 27.3997 12.32C27.8264 11.7867 28.0397 11.0133 28.0397 10C28.0397 8.98667 27.833 8.22 27.4197 7.7C27.0064 7.16667 26.433 6.9 25.6997 6.9C25.2197 6.9 24.8064 7.02667 24.4597 7.28C24.113 7.53333 23.8397 7.89333 23.6397 8.36C23.453 8.82667 23.3597 9.38 23.3597 10.02C23.3597 10.6733 23.453 11.2333 23.6397 11.7C23.8397 12.1533 24.113 12.5 24.4597 12.74C24.8197 12.98 25.2264 13.1 25.6797 13.1ZM37.7988 15.2C36.7454 15.2 35.8254 14.9933 35.0388 14.58C34.2654 14.1667 33.6654 13.5733 33.2388 12.8C32.8121 12.0267 32.5988 11.0933 32.5988 10C32.5988 8.90667 32.8121 7.97333 33.2388 7.2C33.6654 6.42667 34.2588 5.83333 35.0188 5.42C35.7921 5.00667 36.6721 4.8 37.6588 4.8C38.6721 4.8 39.5321 5.00667 40.2388 5.42C40.9454 5.82 41.4854 6.37333 41.8588 7.08C42.2321 7.77333 42.4188 8.56667 42.4188 9.46C42.4188 9.72667 42.4121 9.98 42.3988 10.22C42.3854 10.46 42.3654 10.6733 42.3388 10.86H34.3587V8.96H41.1388L39.8188 9.44C39.8188 8.6 39.6254 7.95333 39.2388 7.5C38.8654 7.04667 38.3321 6.82 37.6388 6.82C37.1321 6.82 36.6921 6.94 36.3188 7.18C35.9588 7.42 35.6854 7.78 35.4988 8.26C35.3121 8.72667 35.2188 9.32 35.2188 10.04C35.2188 10.7467 35.3188 11.3333 35.5188 11.8C35.7321 12.2533 36.0254 12.5933 36.3988 12.82C36.7854 13.0467 37.2454 13.16 37.7788 13.16C38.3654 13.16 38.8388 13.0467 39.1988 12.82C39.5588 12.5933 39.8388 12.28 40.0388 11.88L42.2188 12.72C42.0054 13.24 41.6788 13.6867 41.2388 14.06C40.8121 14.4333 40.2988 14.72 39.6988 14.92C39.1121 15.1067 38.4788 15.2 37.7988 15.2ZM46.1208 3.56C45.5474 3.56 45.1208 3.44 44.8408 3.2C44.5608 2.94667 44.4208 2.58 44.4208 2.1C44.4208 1.60667 44.5608 1.24 44.8408 0.999999C45.1208 0.746666 45.5474 0.619999 46.1208 0.619999C46.6941 0.619999 47.1208 0.746666 47.4008 0.999999C47.6808 1.24 47.8208 1.60667 47.8208 2.1C47.8208 2.58 47.6808 2.94667 47.4008 3.2C47.1208 3.44 46.6941 3.56 46.1208 3.56ZM47.4808 5V15H44.7408V5H47.4808ZM50.3853 15V5H52.7653L52.9453 6.96C53.212 6.26667 53.5986 5.73333 54.1053 5.36C54.6253 4.98667 55.272 4.8 56.0453 4.8C56.272 4.8 56.4786 4.82 56.6653 4.86C56.852 4.9 57.0053 4.95333 57.1253 5.02L56.8053 7.32C56.672 7.26667 56.5053 7.22667 56.3053 7.2C56.1186 7.17333 55.872 7.16 55.5653 7.16C55.1653 7.16 54.7786 7.26 54.4053 7.46C54.032 7.64667 53.7253 7.94 53.4853 8.34C53.2453 8.72667 53.1253 9.22 53.1253 9.82V15H50.3853ZM63.1875 4.8C64.2008 4.8 65.0875 5.00667 65.8475 5.42C66.6208 5.83333 67.2208 6.42667 67.6475 7.2C68.0875 7.97333 68.3075 8.90667 68.3075 10C68.3075 11.08 68.0875 12.0133 67.6475 12.8C67.2208 13.5733 66.6208 14.1667 65.8475 14.58C65.0875 14.9933 64.2008 15.2 63.1875 15.2C62.1875 15.2 61.3008 14.9933 60.5275 14.58C59.7542 14.1667 59.1475 13.5733 58.7075 12.8C58.2808 12.0133 58.0675 11.08 58.0675 10C58.0675 8.90667 58.2808 7.97333 58.7075 7.2C59.1475 6.42667 59.7542 5.83333 60.5275 5.42C61.3008 5.00667 62.1875 4.8 63.1875 4.8ZM63.1875 6.84C62.6808 6.84 62.2475 6.96 61.8875 7.2C61.5408 7.42667 61.2742 7.77333 61.0875 8.24C60.9008 8.70667 60.8075 9.29333 60.8075 10C60.8075 10.7067 60.9008 11.2933 61.0875 11.76C61.2742 12.2267 61.5408 12.58 61.8875 12.82C62.2475 13.0467 62.6808 13.16 63.1875 13.16C63.6808 13.16 64.1008 13.0467 64.4475 12.82C64.8075 12.58 65.0808 12.2267 65.2675 11.76C65.4542 11.2933 65.5475 10.7067 65.5475 10C65.5475 9.29333 65.4542 8.70667 65.2675 8.24C65.0808 7.77333 64.8075 7.42667 64.4475 7.2C64.1008 6.96 63.6808 6.84 63.1875 6.84ZM6.54 21.6C7.74 21.6 8.79333 21.8067 9.7 22.22C10.6067 22.6333 11.38 23.2467 12.02 24.06L10.48 25.84C9.93333 25.1467 9.33333 24.64 8.68 24.32C8.04 23.9867 7.29333 23.82 6.44 23.82C5.88 23.82 5.41333 23.8933 5.04 24.04C4.68 24.1867 4.41333 24.38 4.24 24.62C4.08 24.86 4 25.1267 4 25.42C4 25.78 4.14 26.0867 4.42 26.34C4.7 26.58 5.18 26.78 5.86 26.94L8.32 27.5C9.62667 27.7933 10.56 28.2333 11.12 28.82C11.6933 29.3933 11.98 30.14 11.98 31.06C11.98 31.9267 11.7533 32.6733 11.3 33.3C10.8467 33.9133 10.2133 34.3867 9.4 34.72C8.58667 35.04 7.65333 35.2 6.6 35.2C5.68 35.2 4.83333 35.0933 4.06 34.88C3.3 34.6533 2.62 34.3467 2.02 33.96C1.42 33.5733 0.92 33.1267 0.52 32.62L2.08 30.76C2.38667 31.1867 2.76667 31.5667 3.22 31.9C3.67333 32.2333 4.18667 32.5 4.76 32.7C5.34667 32.8867 5.96 32.98 6.6 32.98C7.14667 32.98 7.60667 32.92 7.98 32.8C8.36667 32.6667 8.65333 32.4867 8.84 32.26C9.04 32.02 9.14 31.7333 9.14 31.4C9.14 31.0533 9.02 30.76 8.78 30.52C8.55333 30.2667 8.12667 30.0733 7.5 29.94L4.82 29.34C4.04667 29.1533 3.38 28.9133 2.82 28.62C2.27333 28.3133 1.85333 27.9267 1.56 27.46C1.28 26.98 1.14 26.4133 1.14 25.76C1.14 24.9733 1.35333 24.2667 1.78 23.64C2.20667 23.0133 2.82 22.52 3.62 22.16C4.43333 21.7867 5.40667 21.6 6.54 21.6ZM17.8511 21.94V31.74C17.8511 32.22 17.9711 32.5733 18.2111 32.8C18.4644 33.0133 18.8044 33.12 19.2311 33.12C19.5644 33.12 19.8578 33.0733 20.1111 32.98C20.3644 32.8733 20.5911 32.7333 20.7911 32.56L21.2311 34.38C20.9111 34.6333 20.5111 34.8333 20.0311 34.98C19.5511 35.1267 19.0444 35.2 18.5111 35.2C17.8444 35.2 17.2511 35.1 16.7311 34.9C16.2244 34.7 15.8244 34.38 15.5311 33.94C15.2511 33.5 15.1111 32.9133 15.1111 32.18V22.7L17.8511 21.94ZM21.0511 25V27.04H13.2711V25H21.0511ZM27.4648 24.8C28.4782 24.8 29.3648 25.0067 30.1248 25.42C30.8982 25.8333 31.4982 26.4267 31.9248 27.2C32.3648 27.9733 32.5848 28.9067 32.5848 30C32.5848 31.08 32.3648 32.0133 31.9248 32.8C31.4982 33.5733 30.8982 34.1667 30.1248 34.58C29.3648 34.9933 28.4782 35.2 27.4648 35.2C26.4648 35.2 25.5782 34.9933 24.8048 34.58C24.0315 34.1667 23.4248 33.5733 22.9848 32.8C22.5582 32.0133 22.3448 31.08 22.3448 30C22.3448 28.9067 22.5582 27.9733 22.9848 27.2C23.4248 26.4267 24.0315 25.8333 24.8048 25.42C25.5782 25.0067 26.4648 24.8 27.4648 24.8ZM27.4648 26.84C26.9582 26.84 26.5248 26.96 26.1648 27.2C25.8182 27.4267 25.5515 27.7733 25.3648 28.24C25.1782 28.7067 25.0848 29.2933 25.0848 30C25.0848 30.7067 25.1782 31.2933 25.3648 31.76C25.5515 32.2267 25.8182 32.58 26.1648 32.82C26.5248 33.0467 26.9582 33.16 27.4648 33.16C27.9582 33.16 28.3782 33.0467 28.7248 32.82C29.0848 32.58 29.3582 32.2267 29.5448 31.76C29.7315 31.2933 29.8248 30.7067 29.8248 30C29.8248 29.2933 29.7315 28.7067 29.5448 28.24C29.3582 27.7733 29.0848 27.4267 28.7248 27.2C28.3782 26.96 27.9582 26.84 27.4648 26.84ZM34.8775 35V25H37.3375L37.4975 28L37.1575 27.68C37.3175 27.0267 37.5708 26.4867 37.9175 26.06C38.2642 25.6333 38.6842 25.32 39.1775 25.12C39.6842 24.9067 40.2375 24.8 40.8375 24.8C41.5308 24.8 42.1442 24.9333 42.6775 25.2C43.2242 25.4667 43.6508 25.8733 43.9575 26.42C44.2775 26.9533 44.4375 27.6267 44.4375 28.44V35H41.6975V29.22C41.6975 28.3667 41.5308 27.78 41.1975 27.46C40.8642 27.1267 40.4308 26.96 39.8975 26.96C39.5242 26.96 39.1575 27.0533 38.7975 27.24C38.4508 27.4133 38.1642 27.7 37.9375 28.1C37.7242 28.5 37.6175 29.0333 37.6175 29.7V35H34.8775ZM51.9003 35.2C50.847 35.2 49.927 34.9933 49.1403 34.58C48.367 34.1667 47.767 33.5733 47.3403 32.8C46.9136 32.0267 46.7003 31.0933 46.7003 30C46.7003 28.9067 46.9136 27.9733 47.3403 27.2C47.767 26.4267 48.3603 25.8333 49.1203 25.42C49.8936 25.0067 50.7736 24.8 51.7603 24.8C52.7736 24.8 53.6336 25.0067 54.3403 25.42C55.047 25.82 55.587 26.3733 55.9603 27.08C56.3336 27.7733 56.5203 28.5667 56.5203 29.46C56.5203 29.7267 56.5136 29.98 56.5003 30.22C56.487 30.46 56.467 30.6733 56.4403 30.86H48.4603V28.96H55.2403L53.9203 29.44C53.9203 28.6 53.727 27.9533 53.3403 27.5C52.967 27.0467 52.4336 26.82 51.7403 26.82C51.2336 26.82 50.7936 26.94 50.4203 27.18C50.0603 27.42 49.787 27.78 49.6003 28.26C49.4136 28.7267 49.3203 29.32 49.3203 30.04C49.3203 30.7467 49.4203 31.3333 49.6203 31.8C49.8336 32.2533 50.127 32.5933 50.5003 32.82C50.887 33.0467 51.347 33.16 51.8803 33.16C52.467 33.16 52.9403 33.0467 53.3003 32.82C53.6603 32.5933 53.9403 32.28 54.1403 31.88L56.3203 32.72C56.107 33.24 55.7803 33.6867 55.3403 34.06C54.9136 34.4333 54.4003 34.72 53.8003 34.92C53.2136 35.1067 52.5803 35.2 51.9003 35.2ZM62.8423 35.2C61.829 35.2 60.9023 35.02 60.0623 34.66C59.2357 34.3 58.5623 33.7933 58.0423 33.14L59.6223 31.54C59.9423 32.02 60.369 32.4133 60.9023 32.72C61.4357 33.0267 62.069 33.18 62.8023 33.18C63.3223 33.18 63.7357 33.1067 64.0423 32.96C64.3623 32.8 64.5223 32.5533 64.5223 32.22C64.5223 32.0067 64.449 31.8267 64.3023 31.68C64.1557 31.52 63.8623 31.3933 63.4223 31.3L61.6623 30.94C60.5023 30.7 59.6757 30.34 59.1823 29.86C58.7023 29.3667 58.4623 28.7333 58.4623 27.96C58.4623 27.4133 58.6223 26.9 58.9423 26.42C59.2757 25.94 59.769 25.5533 60.4223 25.26C61.0757 24.9533 61.889 24.8 62.8623 24.8C63.8623 24.8 64.729 24.96 65.4623 25.28C66.209 25.5867 66.7957 26.0467 67.2223 26.66L65.5823 28.26C65.289 27.7933 64.9023 27.44 64.4223 27.2C63.9557 26.9467 63.4623 26.82 62.9423 26.82C62.569 26.82 62.249 26.86 61.9823 26.94C61.7157 27.02 61.5157 27.1333 61.3823 27.28C61.249 27.4133 61.1823 27.5867 61.1823 27.8C61.1823 28.0133 61.2757 28.2 61.4623 28.36C61.649 28.5067 61.989 28.6333 62.4823 28.74L64.5223 29.16C65.509 29.36 66.2157 29.7 66.6423 30.18C67.069 30.6467 67.2823 31.2133 67.2823 31.88C67.2823 32.52 67.109 33.0933 66.7623 33.6C66.429 34.0933 65.929 34.4867 65.2623 34.78C64.609 35.06 63.8023 35.2 62.8423 35.2Z" fill="white"/>
</svg>
