<svg width="69" height="36" viewBox="0 0 69 36" fill="none" xmlns="http://www.w3.org/2000/svg">
<path d="M7.54002 1.8C9.03335 1.8 10.2067 2.16 11.06 2.88C11.9134 3.6 12.34 4.56666 12.34 5.78C12.34 7.07333 11.9134 8.06666 11.06 8.76C10.2067 9.44 9.04002 9.78 7.56002 9.78L7.28002 9.94H4.44002V15H1.72002V1.8H7.54002ZM7.22002 7.84C7.99335 7.84 8.56669 7.68666 8.94002 7.38C9.32669 7.06 9.52002 6.57333 9.52002 5.92C9.52002 5.26666 9.32669 4.78666 8.94002 4.48C8.56669 4.16 7.99335 4 7.22002 4H4.44002V7.84H7.22002ZM8.84002 8.42L13.12 15H10.02L6.48002 9.22L8.84002 8.42Z" fill="black"/>
<path d="M16.3552 3.56C15.7818 3.56 15.3552 3.44 15.0752 3.2C14.7952 2.94666 14.6552 2.58 14.6552 2.1C14.6552 1.60666 14.7952 1.24 15.0752 0.999995C15.3552 0.746662 15.7818 0.619995 16.3552 0.619995C16.9285 0.619995 17.3552 0.746662 17.6352 0.999995C17.9152 1.24 18.0552 1.60666 18.0552 2.1C18.0552 2.58 17.9152 2.94666 17.6352 3.2C17.3552 3.44 16.9285 3.56 16.3552 3.56ZM17.7152 5V15H14.9752V5H17.7152Z" fill="black"/>
<path d="M26.4997 15.2C25.8864 15.2 25.3264 15.0733 24.8197 14.82C24.3264 14.5533 23.913 14.1933 23.5797 13.74C23.2597 13.2733 23.0397 12.7533 22.9197 12.18L23.1997 11.82L23.0397 15H20.6197V0.619995H23.3597V7.82L23.0997 7.4C23.313 6.65333 23.7197 6.03333 24.3197 5.54C24.9197 5.04666 25.673 4.79999 26.5797 4.79999C27.3664 4.79999 28.0797 5.00666 28.7197 5.42C29.3597 5.83333 29.8597 6.42666 30.2197 7.2C30.593 7.97333 30.7797 8.91333 30.7797 10.02C30.7797 11.1 30.593 12.0267 30.2197 12.8C29.8597 13.5733 29.353 14.1667 28.6997 14.58C28.0597 14.9933 27.3264 15.2 26.4997 15.2ZM25.6797 13.1C26.413 13.1 26.9864 12.84 27.3997 12.32C27.8264 11.7867 28.0397 11.0133 28.0397 10C28.0397 8.98666 27.833 8.22 27.4197 7.7C27.0064 7.16666 26.433 6.9 25.6997 6.9C25.2197 6.9 24.8064 7.02666 24.4597 7.28C24.113 7.53333 23.8397 7.89333 23.6397 8.36C23.453 8.82666 23.3597 9.38 23.3597 10.02C23.3597 10.6733 23.453 11.2333 23.6397 11.7C23.8397 12.1533 24.113 12.5 24.4597 12.74C24.8197 12.98 25.2264 13.1 25.6797 13.1Z" fill="black"/>
<path d="M37.7988 15.2C36.7454 15.2 35.8254 14.9933 35.0388 14.58C34.2654 14.1667 33.6654 13.5733 33.2388 12.8C32.8121 12.0267 32.5988 11.0933 32.5988 10C32.5988 8.90666 32.8121 7.97333 33.2388 7.2C33.6654 6.42666 34.2588 5.83333 35.0188 5.42C35.7921 5.00666 36.6721 4.79999 37.6588 4.79999C38.6721 4.79999 39.5321 5.00666 40.2388 5.42C40.9454 5.82 41.4854 6.37333 41.8588 7.08C42.2321 7.77333 42.4188 8.56666 42.4188 9.46C42.4188 9.72666 42.4121 9.98 42.3988 10.22C42.3854 10.46 42.3654 10.6733 42.3388 10.86H34.3588V8.96H41.1388L39.8188 9.44C39.8188 8.6 39.6254 7.95333 39.2388 7.5C38.8654 7.04666 38.3321 6.82 37.6388 6.82C37.1321 6.82 36.6921 6.94 36.3188 7.18C35.9588 7.42 35.6854 7.78 35.4988 8.26C35.3121 8.72666 35.2188 9.32 35.2188 10.04C35.2188 10.7467 35.3188 11.3333 35.5188 11.8C35.7321 12.2533 36.0254 12.5933 36.3988 12.82C36.7854 13.0467 37.2454 13.16 37.7788 13.16C38.3654 13.16 38.8388 13.0467 39.1988 12.82C39.5588 12.5933 39.8388 12.28 40.0388 11.88L42.2188 12.72C42.0054 13.24 41.6788 13.6867 41.2388 14.06C40.8121 14.4333 40.2988 14.72 39.6988 14.92C39.1121 15.1067 38.4788 15.2 37.7988 15.2Z" fill="black"/>
<path d="M46.1208 3.56C45.5475 3.56 45.1208 3.44 44.8408 3.2C44.5608 2.94666 44.4208 2.58 44.4208 2.1C44.4208 1.60666 44.5608 1.24 44.8408 0.999995C45.1208 0.746662 45.5475 0.619995 46.1208 0.619995C46.6941 0.619995 47.1208 0.746662 47.4008 0.999995C47.6808 1.24 47.8208 1.60666 47.8208 2.1C47.8208 2.58 47.6808 2.94666 47.4008 3.2C47.1208 3.44 46.6941 3.56 46.1208 3.56ZM47.4808 5V15H44.7408V5H47.4808Z" fill="black"/>
<path d="M50.3853 15V5H52.7653L52.9453 6.96C53.212 6.26666 53.5987 5.73333 54.1053 5.36C54.6253 4.98666 55.272 4.79999 56.0453 4.79999C56.272 4.79999 56.4787 4.81999 56.6653 4.86C56.852 4.9 57.0053 4.95333 57.1253 5.02L56.8053 7.32C56.672 7.26666 56.5053 7.22666 56.3053 7.2C56.1187 7.17333 55.872 7.16 55.5653 7.16C55.1653 7.16 54.7787 7.26 54.4053 7.46C54.032 7.64666 53.7253 7.94 53.4853 8.34C53.2453 8.72666 53.1253 9.22 53.1253 9.82V15H50.3853Z" fill="black"/>
<path d="M63.1875 4.79999C64.2009 4.79999 65.0875 5.00666 65.8475 5.42C66.6208 5.83333 67.2209 6.42666 67.6475 7.2C68.0875 7.97333 68.3075 8.90666 68.3075 10C68.3075 11.08 68.0875 12.0133 67.6475 12.8C67.2209 13.5733 66.6208 14.1667 65.8475 14.58C65.0875 14.9933 64.2009 15.2 63.1875 15.2C62.1875 15.2 61.3009 14.9933 60.5275 14.58C59.7542 14.1667 59.1475 13.5733 58.7075 12.8C58.2809 12.0133 58.0675 11.08 58.0675 10C58.0675 8.90666 58.2809 7.97333 58.7075 7.2C59.1475 6.42666 59.7542 5.83333 60.5275 5.42C61.3009 5.00666 62.1875 4.79999 63.1875 4.79999ZM63.1875 6.84C62.6809 6.84 62.2475 6.96 61.8875 7.2C61.5409 7.42666 61.2742 7.77333 61.0875 8.24C60.9009 8.70666 60.8075 9.29333 60.8075 10C60.8075 10.7067 60.9009 11.2933 61.0875 11.76C61.2742 12.2267 61.5409 12.58 61.8875 12.82C62.2475 13.0467 62.6809 13.16 63.1875 13.16C63.6809 13.16 64.1009 13.0467 64.4475 12.82C64.8075 12.58 65.0808 12.2267 65.2675 11.76C65.4542 11.2933 65.5475 10.7067 65.5475 10C65.5475 9.29333 65.4542 8.70666 65.2675 8.24C65.0808 7.77333 64.8075 7.42666 64.4475 7.2C64.1009 6.96 63.6809 6.84 63.1875 6.84Z" fill="black"/>
<path d="M6.54002 21.6C7.74002 21.6 8.79335 21.8067 9.70002 22.22C10.6067 22.6333 11.38 23.2467 12.02 24.06L10.48 25.84C9.93335 25.1467 9.33335 24.64 8.68002 24.32C8.04002 23.9867 7.29335 23.82 6.44002 23.82C5.88002 23.82 5.41335 23.8933 5.04002 24.04C4.68002 24.1867 4.41335 24.38 4.24002 24.62C4.08002 24.86 4.00002 25.1267 4.00002 25.42C4.00002 25.78 4.14002 26.0867 4.42002 26.34C4.70002 26.58 5.18002 26.78 5.86002 26.94L8.32002 27.5C9.62669 27.7933 10.56 28.2333 11.12 28.82C11.6934 29.3933 11.98 30.14 11.98 31.06C11.98 31.9267 11.7534 32.6733 11.3 33.3C10.8467 33.9133 10.2134 34.3867 9.40002 34.72C8.58669 35.04 7.65335 35.2 6.60002 35.2C5.68002 35.2 4.83335 35.0933 4.06002 34.88C3.30002 34.6533 2.62002 34.3467 2.02002 33.96C1.42002 33.5733 0.92002 33.1267 0.52002 32.62L2.08002 30.76C2.38669 31.1867 2.76669 31.5667 3.22002 31.9C3.67335 32.2333 4.18669 32.5 4.76002 32.7C5.34669 32.8867 5.96002 32.98 6.60002 32.98C7.14669 32.98 7.60669 32.92 7.98002 32.8C8.36669 32.6667 8.65335 32.4867 8.84002 32.26C9.04002 32.02 9.14002 31.7333 9.14002 31.4C9.14002 31.0533 9.02002 30.76 8.78002 30.52C8.55335 30.2667 8.12669 30.0733 7.50002 29.94L4.82002 29.34C4.04669 29.1533 3.38002 28.9133 2.82002 28.62C2.27335 28.3133 1.85335 27.9267 1.56002 27.46C1.28002 26.98 1.14002 26.4133 1.14002 25.76C1.14002 24.9733 1.35335 24.2667 1.78002 23.64C2.20669 23.0133 2.82002 22.52 3.62002 22.16C4.43335 21.7867 5.40669 21.6 6.54002 21.6Z" fill="black"/>
<path d="M17.8511 21.94V31.74C17.8511 32.22 17.9711 32.5733 18.2111 32.8C18.4644 33.0133 18.8044 33.12 19.2311 33.12C19.5644 33.12 19.8578 33.0733 20.1111 32.98C20.3644 32.8733 20.5911 32.7333 20.7911 32.56L21.2311 34.38C20.9111 34.6333 20.5111 34.8333 20.0311 34.98C19.5511 35.1267 19.0444 35.2 18.5111 35.2C17.8444 35.2 17.2511 35.1 16.7311 34.9C16.2244 34.7 15.8244 34.38 15.5311 33.94C15.2511 33.5 15.1111 32.9133 15.1111 32.18V22.7L17.8511 21.94ZM21.0511 25V27.04H13.2711V25H21.0511Z" fill="black"/>
<path d="M27.4649 24.8C28.4782 24.8 29.3649 25.0067 30.1249 25.42C30.8982 25.8333 31.4982 26.4267 31.9249 27.2C32.3649 27.9733 32.5849 28.9067 32.5849 30C32.5849 31.08 32.3649 32.0133 31.9249 32.8C31.4982 33.5733 30.8982 34.1667 30.1249 34.58C29.3649 34.9933 28.4782 35.2 27.4649 35.2C26.4649 35.2 25.5782 34.9933 24.8049 34.58C24.0315 34.1667 23.4249 33.5733 22.9849 32.8C22.5582 32.0133 22.3449 31.08 22.3449 30C22.3449 28.9067 22.5582 27.9733 22.9849 27.2C23.4249 26.4267 24.0315 25.8333 24.8049 25.42C25.5782 25.0067 26.4649 24.8 27.4649 24.8ZM27.4649 26.84C26.9582 26.84 26.5249 26.96 26.1649 27.2C25.8182 27.4267 25.5515 27.7733 25.3649 28.24C25.1782 28.7067 25.0849 29.2933 25.0849 30C25.0849 30.7067 25.1782 31.2933 25.3649 31.76C25.5515 32.2267 25.8182 32.58 26.1649 32.82C26.5249 33.0467 26.9582 33.16 27.4649 33.16C27.9582 33.16 28.3782 33.0467 28.7249 32.82C29.0849 32.58 29.3582 32.2267 29.5449 31.76C29.7315 31.2933 29.8249 30.7067 29.8249 30C29.8249 29.2933 29.7315 28.7067 29.5449 28.24C29.3582 27.7733 29.0849 27.4267 28.7249 27.2C28.3782 26.96 27.9582 26.84 27.4649 26.84Z" fill="black"/>
<path d="M34.8775 35V25H37.3375L37.4975 28L37.1575 27.68C37.3175 27.0267 37.5709 26.4867 37.9175 26.06C38.2642 25.6333 38.6842 25.32 39.1775 25.12C39.6842 24.9067 40.2375 24.8 40.8375 24.8C41.5309 24.8 42.1442 24.9333 42.6775 25.2C43.2242 25.4667 43.6509 25.8733 43.9575 26.42C44.2775 26.9533 44.4375 27.6267 44.4375 28.44V35H41.6975V29.22C41.6975 28.3667 41.5309 27.78 41.1975 27.46C40.8642 27.1267 40.4309 26.96 39.8975 26.96C39.5242 26.96 39.1575 27.0533 38.7975 27.24C38.4509 27.4133 38.1642 27.7 37.9375 28.1C37.7242 28.5 37.6175 29.0333 37.6175 29.7V35H34.8775Z" fill="black"/>
<path d="M51.9003 35.2C50.847 35.2 49.927 34.9933 49.1403 34.58C48.367 34.1667 47.767 33.5733 47.3403 32.8C46.9137 32.0267 46.7003 31.0933 46.7003 30C46.7003 28.9067 46.9137 27.9733 47.3403 27.2C47.767 26.4267 48.3603 25.8333 49.1203 25.42C49.8937 25.0067 50.7737 24.8 51.7603 24.8C52.7737 24.8 53.6337 25.0067 54.3403 25.42C55.047 25.82 55.587 26.3733 55.9603 27.08C56.3337 27.7733 56.5203 28.5667 56.5203 29.46C56.5203 29.7267 56.5137 29.98 56.5003 30.22C56.487 30.46 56.467 30.6733 56.4403 30.86H48.4603V28.96H55.2403L53.9203 29.44C53.9203 28.6 53.727 27.9533 53.3403 27.5C52.967 27.0467 52.4337 26.82 51.7403 26.82C51.2337 26.82 50.7937 26.94 50.4203 27.18C50.0603 27.42 49.787 27.78 49.6003 28.26C49.4137 28.7267 49.3203 29.32 49.3203 30.04C49.3203 30.7467 49.4203 31.3333 49.6203 31.8C49.8337 32.2533 50.127 32.5933 50.5003 32.82C50.887 33.0467 51.347 33.16 51.8803 33.16C52.467 33.16 52.9403 33.0467 53.3003 32.82C53.6603 32.5933 53.9403 32.28 54.1403 31.88L56.3203 32.72C56.107 33.24 55.7803 33.6867 55.3403 34.06C54.9137 34.4333 54.4003 34.72 53.8003 34.92C53.2137 35.1067 52.5803 35.2 51.9003 35.2Z" fill="black"/>
<path d="M62.8424 35.2C61.829 35.2 60.9024 35.02 60.0624 34.66C59.2357 34.3 58.5624 33.7933 58.0424 33.14L59.6224 31.54C59.9424 32.02 60.369 32.4133 60.9024 32.72C61.4357 33.0267 62.069 33.18 62.8024 33.18C63.3224 33.18 63.7357 33.1067 64.0424 32.96C64.3624 32.8 64.5224 32.5533 64.5224 32.22C64.5224 32.0067 64.449 31.8267 64.3024 31.68C64.1557 31.52 63.8624 31.3933 63.4224 31.3L61.6624 30.94C60.5024 30.7 59.6757 30.34 59.1824 29.86C58.7024 29.3667 58.4624 28.7333 58.4624 27.96C58.4624 27.4133 58.6224 26.9 58.9424 26.42C59.2757 25.94 59.769 25.5533 60.4224 25.26C61.0757 24.9533 61.889 24.8 62.8624 24.8C63.8624 24.8 64.729 24.96 65.4624 25.28C66.209 25.5867 66.7957 26.0467 67.2224 26.66L65.5824 28.26C65.289 27.7933 64.9024 27.44 64.4224 27.2C63.9557 26.9467 63.4624 26.82 62.9424 26.82C62.569 26.82 62.249 26.86 61.9824 26.94C61.7157 27.02 61.5157 27.1333 61.3824 27.28C61.249 27.4133 61.1824 27.5867 61.1824 27.8C61.1824 28.0133 61.2757 28.2 61.4624 28.36C61.649 28.5067 61.989 28.6333 62.4824 28.74L64.5224 29.16C65.509 29.36 66.2157 29.7 66.6424 30.18C67.069 30.6467 67.2824 31.2133 67.2824 31.88C67.2824 32.52 67.109 33.0933 66.7624 33.6C66.429 34.0933 65.929 34.4867 65.2624 34.78C64.609 35.06 63.8024 35.2 62.8424 35.2Z" fill="black"/>
</svg>
