<svg width="20" height="20" viewBox="0 0 20 20" fill="none" xmlns="http://www.w3.org/2000/svg">
<g clip-path="url(#clip0_180_284)">
<path d="M18.3334 14.0999V16.5999C18.3344 16.832 18.2868 17.0617 18.1939 17.2744C18.1009 17.487 17.9645 17.6779 17.7935 17.8348C17.6225 17.9917 17.4206 18.1112 17.2007 18.1855C16.9809 18.2599 16.7479 18.2875 16.5168 18.2666C13.9525 17.988 11.4893 17.1117 9.32511 15.7083C7.31163 14.4288 5.60455 12.7217 4.32511 10.7083C2.91676 8.53426 2.04031 6.05908 1.76677 3.48325C1.74595 3.25281 1.77334 3.02055 1.84719 2.80127C1.92105 2.58199 2.03975 2.38049 2.19575 2.2096C2.35174 2.03871 2.54161 1.90218 2.75327 1.80869C2.96492 1.7152 3.19372 1.6668 3.42511 1.66658H5.92511C6.32953 1.6626 6.7216 1.80582 7.02824 2.06953C7.33488 2.33324 7.53517 2.69946 7.59177 3.09992C7.69729 3.89997 7.89298 4.68552 8.17511 5.44158C8.28723 5.73985 8.31149 6.06401 8.24503 6.37565C8.17857 6.68729 8.02416 6.97334 7.80011 7.19992L6.74177 8.25825C7.92807 10.3445 9.65549 12.072 11.7418 13.2583L12.8001 12.1999C13.0267 11.9759 13.3127 11.8215 13.6244 11.755C13.936 11.6885 14.2602 11.7128 14.5584 11.8249C15.3145 12.107 16.1001 12.3027 16.9001 12.4083C17.3049 12.4654 17.6746 12.6693 17.9389 12.9812C18.2032 13.2931 18.3436 13.6912 18.3334 14.0999Z" stroke="#D0D0D0" stroke-width="2" stroke-linecap="round" stroke-linejoin="round"/>
</g>
<defs>
<clipPath id="clip0_180_284">
<rect width="20" height="20" fill="white"/>
</clipPath>
</defs>
</svg>
