<svg width="34" height="26" viewBox="0 0 34 26" fill="none" xmlns="http://www.w3.org/2000/svg">
<path d="M7.83333 10.6666C7.46166 10.6666 7.105 10.7232 6.75 10.7749C6.865 10.3882 6.98333 9.99489 7.17333 9.64155C7.36333 9.12822 7.66 8.68322 7.955 8.23489C8.20166 7.74989 8.63666 7.42155 8.95666 7.00655C9.29166 6.60322 9.74833 6.33489 10.11 5.99989C10.465 5.64989 10.93 5.47489 11.3 5.22822C11.6867 5.00655 12.0233 4.76155 12.3833 4.64489L13.2817 4.27489L14.0717 3.94655L13.2633 0.716553L12.2683 0.956552C11.95 1.03655 11.5617 1.12989 11.12 1.24155C10.6683 1.32489 10.1867 1.55322 9.65 1.76155C9.12 1.99822 8.50666 2.15822 7.93666 2.53822C7.36333 2.90155 6.70166 3.20489 6.11833 3.69155C5.55333 4.19322 4.87166 4.62822 4.36833 5.26655C3.81833 5.86322 3.275 6.48989 2.85333 7.20322C2.365 7.88322 2.03333 8.62989 1.68333 9.36822C1.36666 10.1066 1.11166 10.8616 0.903331 11.5949C0.508331 13.0649 0.331665 14.4616 0.263331 15.6566C0.206665 16.8532 0.239998 17.8482 0.309998 18.5682C0.334998 18.9082 0.381665 19.2382 0.414998 19.4666L0.456664 19.7466L0.499998 19.7366C0.796433 21.1213 1.47884 22.3938 2.46827 23.4069C3.4577 24.4199 4.71373 25.1322 6.09106 25.4613C7.46839 25.7903 8.91074 25.7227 10.2513 25.2663C11.5918 24.8098 12.7757 23.9832 13.666 22.882C14.5563 21.7808 15.1167 20.4501 15.2824 19.0437C15.448 17.6373 15.2121 16.2128 14.6019 14.9349C13.9917 13.657 13.0322 12.578 11.8344 11.8226C10.6366 11.0673 9.24942 10.6665 7.83333 10.6666ZM26.1667 10.6666C25.795 10.6666 25.4383 10.7232 25.0833 10.7749C25.1983 10.3882 25.3167 9.99489 25.5067 9.64155C25.6967 9.12822 25.9933 8.68322 26.2883 8.23489C26.535 7.74989 26.97 7.42155 27.29 7.00655C27.625 6.60322 28.0817 6.33489 28.4433 5.99989C28.7983 5.64989 29.2633 5.47489 29.6333 5.22822C30.02 5.00655 30.3567 4.76155 30.7167 4.64489L31.615 4.27489L32.405 3.94655L31.5967 0.716553L30.6017 0.956552C30.2833 1.03655 29.895 1.12989 29.4533 1.24155C29.0017 1.32489 28.52 1.55322 27.9833 1.76155C27.455 1.99989 26.84 2.15822 26.27 2.53989C25.6967 2.90322 25.035 3.20655 24.4517 3.69322C23.8867 4.19489 23.205 4.62989 22.7017 5.26655C22.1517 5.86322 21.6083 6.48989 21.1867 7.20322C20.6983 7.88322 20.3667 8.62989 20.0167 9.36822C19.7 10.1066 19.445 10.8616 19.2367 11.5949C18.8417 13.0649 18.665 14.4616 18.5967 15.6566C18.54 16.8532 18.5733 17.8482 18.6433 18.5682C18.6683 18.9082 18.715 19.2382 18.7483 19.4666L18.79 19.7466L18.8333 19.7366C19.1298 21.1213 19.8122 22.3938 20.8016 23.4069C21.791 24.4199 23.0471 25.1322 24.4244 25.4613C25.8017 25.7903 27.2441 25.7227 28.5846 25.2663C29.9251 24.8098 31.109 23.9832 31.9993 22.882C32.8897 21.7808 33.4501 20.4501 33.6157 19.0437C33.7813 17.6373 33.5454 16.2128 32.9352 14.9349C32.325 13.657 31.3656 12.578 30.1677 11.8226C28.9699 11.0673 27.5828 10.6665 26.1667 10.6666Z" fill="#636363"/>
</svg>
