<svg width="166" height="166" viewBox="0 0 166 166" fill="none" xmlns="http://www.w3.org/2000/svg">
<path d="M124.675 8.8L125.637 10.7125L132.837 29.875C133.4 31.375 134.587 32.575 136.1 33.1375L154.6 40.0875C162.725 43.125 167.087 51.8 164.925 60.0125L164.4 61.6375L155.8 80.675C155.469 81.401 155.297 82.1896 155.297 82.9875C155.297 83.7854 155.469 84.574 155.8 85.3L163.975 103.3C165.685 107.073 165.937 111.346 164.681 115.294C163.425 119.241 160.751 122.584 157.175 124.675L155.262 125.638L136.1 132.838C135.357 133.119 134.683 133.556 134.123 134.118C133.563 134.681 133.128 135.356 132.85 136.1L125.9 154.6C124.445 158.484 121.6 161.69 117.917 163.598C114.234 165.505 109.974 165.978 105.962 164.925L104.337 164.4L85.2997 155.8C84.5737 155.469 83.7851 155.298 82.9872 155.298C82.1893 155.298 81.4007 155.469 80.6747 155.8L62.6872 163.975C58.9142 165.685 54.6411 165.937 50.6934 164.681C46.7457 163.425 43.4035 160.751 41.3122 157.175L40.3497 155.262L33.1372 136.1C32.8556 135.358 32.4189 134.684 31.8563 134.123C31.2938 133.563 30.6182 133.129 29.8747 132.85L11.3747 125.9C7.49061 124.445 4.28454 121.6 2.37716 117.917C0.469786 114.234 -0.00322485 109.974 1.0497 105.963L1.5747 104.338L10.1872 85.3C10.5174 84.5738 10.6882 83.7853 10.6882 82.9875C10.6882 82.1897 10.5174 81.4012 10.1872 80.675L1.9997 62.6875C0.288178 58.9159 0.0347041 54.6439 1.28822 50.6964C2.54173 46.7489 5.21333 43.4058 8.7872 41.3125L10.6997 40.35L29.8747 33.125C30.6195 32.8449 31.2958 32.4089 31.8584 31.8462C32.4211 31.2836 32.8571 30.6073 33.1372 29.8625L40.0872 11.3625C41.5422 7.4811 44.3846 4.27705 48.065 2.36992C51.7453 0.462787 56.0021 -0.0119532 60.0122 1.0375L61.6372 1.5625L80.6747 10.175C81.4009 10.5052 82.1894 10.676 82.9872 10.676C83.785 10.676 84.5735 10.5052 85.2997 10.175L103.3 2C107.071 0.288479 111.343 0.0350051 115.291 1.28852C119.238 2.54203 122.581 5.21363 124.675 8.7875V8.8ZM110.05 54.3125L70.2122 99.8125L55.6872 85.2875C54.6319 84.2777 53.2232 83.7213 51.7627 83.7374C50.3022 83.7535 48.9061 84.3408 47.8733 85.3736C46.8405 86.4064 46.2532 87.8025 46.2371 89.263C46.221 90.7235 46.7774 92.1322 47.7872 93.1875L66.5372 111.938C67.0783 112.477 67.7245 112.9 68.4356 113.18C69.1468 113.461 69.9079 113.592 70.6718 113.566C71.4357 113.54 72.1862 113.358 72.8769 113.031C73.5675 112.703 74.1837 112.238 74.6872 111.663L118.437 61.6625C119.328 60.538 119.752 59.1138 119.622 57.6852C119.491 56.2565 118.816 54.9326 117.737 53.9879C116.657 53.0432 115.255 52.55 113.822 52.6104C112.389 52.6708 111.034 53.2803 110.037 54.3125H110.05Z" fill="#39D004"/>
</svg>
